# xmcd
#
# Track frame offsets:
# 150
# 14958
# 34229
# 48160
# 60326
#
# Disc length: 938 seconds
#
#
# Revision: 0
# Processed by: cddbd v1.5.1PL0 Copyright (c) Steve Scherf et al.
# Submitted via: FreeRIP 2.942 
#
DISCID=3c03a805
DTITLE=Amy Pike and The Last Cold Beer - Just a Sip
DYEAR=2001
DGENRE=Alt.Country
TTITLE0=Broken Hearted
TTITLE1=In My World
TTITLE2=I Want Your Love
TTITLE3=Make Me an Offer
TTITLE4=May I Have This Dance?
EXTD=
EXTT0=
EXTT1=
EXTT2=
EXTT3=
EXTT4=
PLAYORDER=
